<?xml version="1.0" standalone="no"?>
<!DOCTYPE svg PUBLIC "-//W3C//DTD SVG 1.1//EN" "http://www.w3.org/Graphics/SVG/1.1/DTD/svg11.dtd" >
<!--
2013-9-30: Created.
-->
<svg>
<metadata>
Created by iconfont
</metadata>
<defs>

<font id="iconfont" horiz-adv-x="1024" >
  <font-face
    font-family="iconfont"
    font-weight="500"
    font-stretch="normal"
    units-per-em="1024"
    ascent="896"
    descent="-128"
  />
    <missing-glyph />
    
    <glyph glyph-name="yonghu" unicode="&#58987;" d="M637.953132 263.721749c71.730695 40.298821 120.348995 116.815519 120.348995 204.542536 0 129.46256-105.705484 234.781234-235.641835 234.781234-129.936351 0-235.628532-105.318674-235.628532-234.781234 0-84.393085 45.041846-158.307516 112.302739-199.683878-152.041812-47.787376-262.605953-189.523471-262.605953-356.600721 0-5.058203 0.560772-9.956769 0.762363-14.97404l52.356438 0c-0.230244 4.986571-0.76134 9.914814-0.76134 14.97404 0 177.279612 144.855132 321.502341 322.909387 321.502341 178.054255 0 322.910411-144.222729 322.910411-321.502341 0-5.058203-0.532119-9.987468-0.775666-14.97404l52.371788 0c0.200568 5.016247 0.760317 9.914814 0.760317 14.97404C887.263268 74.068318 783.009855 211.982364 637.953132 263.721749zM339.389222 468.264285c0 100.588953 82.208327 182.423773 183.27107 182.423773 101.06479 0 183.272094-81.83482 183.272094-182.423773 0-100.589976-82.207303-182.423773-183.272094-182.423773C421.597549 285.840512 339.389222 367.674309 339.389222 468.264285z"  horiz-adv-x="1024" />

    
    <glyph glyph-name="dayin" unicode="&#58908;" d="M343.136058 724.27694l370.576013 0 0-92.186585 45.195342 0 0 92.466971c0 25.535583-20.354584 46.718021-45.933145 46.718021L342.757434 771.275347c-25.535583 0-46.619784-21.187555-46.619784-46.718021l0-92.466971L343.136058 632.090355 343.136058 724.27694 343.136058 724.27694zM851.806219 585.090924 203.932646 585.090924c-25.53456 0-46.990221-20.09671-46.990221-45.632293l0-231.371578c0-25.582655 21.455661-46.559409 46.990221-46.559409l92.203982 0L296.136627 76.710358c0-25.582655 21.085224-46.559409 46.619784-46.559409l370.216833 0c25.582655 0 45.933145 20.98494 45.933145 46.559409L758.906389 261.527644l92.898807 0c25.582655 0 46.291302 20.985964 46.291302 46.559409L898.096499 539.458631c0 25.535583-20.62269 45.632293-46.204321 45.632293L851.806219 585.090924 851.806219 585.090924zM713.712071 77.15038 343.136058 77.15038 343.136058 400.71366l370.576013 0L713.712071 77.15038 713.712071 77.15038zM805.527197 446.909795c-25.578562 0-46.273906 20.696368-46.273906 46.269813 0 25.535583 20.696368 46.279023 46.273906 46.279023 25.582655 0 46.279023-20.74344 46.279023-46.279023C851.806219 467.606163 831.109852 446.909795 805.527197 446.909795L805.527197 446.909795 805.527197 446.909795zM388.328329 353.71423l186.192609 0 0-45.188178L388.328329 308.526051 388.328329 353.71423 388.328329 353.71423zM388.328329 261.527644l278.383288 0 0-46.998407L388.328329 214.529237 388.328329 261.527644 388.328329 261.527644zM388.328329 169.336966l278.383288 0 0-46.994314L388.328329 122.342652 388.328329 169.336966 388.328329 169.336966z"  horiz-adv-x="1024" />

    
    <glyph glyph-name="jifen" unicode="&#58891;" d="M433.68843 503.051296c101.861174 0 207.804288 22.402015 271.42708 65.115205l0-77.763622 58.948509 0L764.064018 660.668163c0 102.359862-170.169196 157.621732-330.275851 157.621732C273.676647 818.289895 103.412579 763.028025 103.412579 660.668163l0-464.692803c0-102.359862 170.16433-157.621732 330.275851-157.621732l0 58.843906c-168.174446 0-271.431945 57.555833-271.431945 98.777826L162.256485 335.671102c63.627657-42.613453 169.471033-65.12007 271.431945-65.12007l0 58.948509c-168.174446 0-271.431945 57.550967-271.431945 98.771745L162.256485 568.066764C225.884142 525.453311 331.827255 503.051296 433.68843 503.051296L433.68843 503.051296zM433.68843 759.445989c168.174446 0 271.42708-57.557049 271.42708-98.777826 0-41.221993-103.25385-98.772961-271.42708-98.772961-168.174446 0-271.431945 57.550967-271.431945 98.772961C162.256485 701.88894 265.613722 759.445989 433.68843 759.445989L433.68843 759.445989zM697.747098 470.789866c-146.266253 0-222.736937-56.258029-222.736937-111.819112l0-298.614061c0-55.556218 76.570421-111.815463 222.736937-111.815463 145.177655 0 221.544952 55.461345 222.741802 110.622262l0.099737 0L920.588637 358.970754C920.4889 414.531837 844.018216 470.789866 697.747098 470.789866L697.747098 470.789866zM697.747098 411.942311c108.137339 0 163.893031-37.140054 163.893031-52.971557s-55.755693-52.971557-163.893031-52.971557c-108.132473 0-163.893031 37.140054-163.893031 52.971557S589.613408 411.942311 697.747098 411.942311L697.747098 411.942311zM697.747098 7.385136c-108.132473 0-163.893031 37.140054-163.893031 52.971557l0 71.296497c37.339529-20.316041 92.207314-33.857231 163.893031-33.857231 71.690582 0 126.45863 13.541189 163.893031 33.857231l0-71.296497C861.640129 44.526406 805.884436 7.385136 697.747098 7.385136L697.747098 7.385136zM697.747098 156.744468c-108.132473 0-163.893031 37.140054-163.893031 52.971557l0 71.291632c37.339529-20.311176 92.207314-33.852366 163.893031-33.852366 71.690582 0 126.45863 13.541189 163.893031 33.852366l0-71.291632C861.640129 193.884522 805.884436 156.744468 697.747098 156.744468L697.747098 156.744468zM697.747098 156.744468"  horiz-adv-x="1024" />

    
    <glyph glyph-name="xitong" unicode="&#58956;" d="M1004.676033 358.670202l-0.876604 49.259057c-0.430701 24.140556-10.23549 46.667755-27.609475 63.433691-17.372971 16.764922-40.190007 25.769114-64.376167 25.331318l-23.766606-0.422594c-8.056648 26.214003-18.738041 51.493637-31.933716 75.575415l20.776018 19.146447c17.755029 16.362597 28.074632 38.657724 29.059672 62.782065 0.984026 24.124341-7.484069 47.186624-23.845652 64.941652l-33.38594 36.229582c-33.775091 36.649136-91.073569 38.990124-127.723718 5.213006l-27.83344-25.650544c-22.645769 12.353527-46.355624 22.49477-70.891411 30.322387L622.268994 789.054328c0 49.840757-40.548756 90.389514-90.389514 90.389514l-49.266151 0c-49.840757 0-90.389514-40.548756-90.389514-90.389514l0-18.869785c-26.46533-7.091877-52.096619-16.835861-76.618219-29.129597l-17.051719 15.714011c-17.755029 16.361583-40.820351 24.828665-64.941652 23.845652-24.124341-0.984026-46.420482-11.304643-62.782065-29.058658l-33.386953-36.228569c-33.776105-36.651163-31.437143-93.947613 5.21402-127.723718l4.22898-3.89658c-16.881465-28.479998-30.128824-58.726379-39.587026-90.394581-23.988544 0.322266-46.671809-8.673818-63.942425-25.338412-17.373985-16.764922-27.178774-39.293135-27.608462-63.432678l-0.877617-49.258044c-0.430701-24.139542 8.566396-47.003196 25.332332-64.376167 16.764922-17.373985 39.293135-27.17776 63.432678-27.608462l2.429155-0.043577c8.783267-30.587901 21.105378-59.927276 36.82243-87.676602l-5.402515-5.853484c-16.373744-17.743881-24.858054-40.801097-23.888216-64.925438 0.968825-24.125355 11.274241-46.427576 29.017108-62.80132l36.207287-33.411275c17.350676-16.010942 39.331645-23.920645 61.26397-23.919631 24.367561 0.002027 48.674317 9.77236 66.462788 29.049538l1.405606 1.522149c27.445302-14.50298 56.320532-25.748845 86.298358-33.610918l0-2.270049c0-49.841771 40.548756-90.389514 90.389514-90.389514l49.266151 0c49.841771 0 90.389514 40.548756 90.389514 90.389514l0 8.817723c28.435408 9.227142 55.671947 21.541147 81.430926 36.812296l7.274292-7.882341c16.372731-17.743881 38.675966-28.049297 62.80132-29.018122 24.135489-0.981999 47.183583 7.514471 64.925438 23.887202l36.207287 33.411275c17.743881 16.372731 28.049297 38.676979 29.018122 62.80132 0.968825 24.125355-7.514471 47.18257-23.888216 64.925438l-19.026864 20.619953c11.64515 23.244697 21.007077 47.497742 27.988492 72.510848l24.888456 0.443876C965.743673 267.573325 1005.563784 308.837552 1004.676033 358.670202zM931.325064 339.415319c-4.563407-4.414435-10.742198-6.763531-17.090229-6.87602l-49.751577-0.886738c-15.358303-0.273622-28.488106-11.128309-31.644893-26.161305l0-0.001013c-7.414143-35.300281-20.350384-69.05713-38.447947-100.33314l-0.001013-0.001013c-7.226662-12.488312-5.482575-28.226645 4.301946-38.830005l34.960787-37.886515c4.441797-4.812707 6.742249-11.066491 6.480788-17.61011-0.263488-6.54362-3.058486-12.592693-7.871193-17.034491l-36.207287-33.411275c-4.813721-4.440784-11.086759-6.747316-17.611124-6.479775-6.54362 0.263488-12.592693 3.058486-17.034491 7.871193l-25.994092 28.169893c-11.131349 12.062677-29.445783 14.08748-42.943456 4.748862l0 0c-33.364658-23.083564-70.130337-39.866728-109.27754-49.884334l0 0c-14.575946-3.729367-24.7709-16.86221-24.7709-31.907368l0-33.546059c0-13.54125-10.97731-24.517546-24.517546-24.517546l-49.265138 0c-13.54125 0-24.517546 10.97731-24.517546 24.517546l0 28.561072c0 15.801165-11.221543 29.375857-26.740978 32.34719l-0.001013 0c-40.672393 7.789107-79.216614 22.794741-114.563512 44.602416l-0.001013 0c-13.412546 8.275546-30.808826 5.888954-41.497313-5.694378l-19.181917-20.787166c-9.168364-9.935519-24.710095-10.559783-34.644601-1.391419l-36.207287 33.411275c-4.812707 4.440784-7.607706 10.490871-7.871193 17.034491-0.262474 6.54362 2.037977 12.797403 6.479775 17.61011l22.234323 24.094952c10.230423 11.086759 11.620828 27.706763 3.373658 40.338979l0 0c-22.693399 34.763171-38.679006 72.876691-47.51193 113.284583l0 0.001013c-3.259142 14.907333-16.331181 25.624195-31.588142 25.896804l-27.59326 0.491506c-13.516928 0.240179-24.317903 11.432333-24.077724 24.949261l0.868497 48.743229c0.113502 6.361205 2.469692 12.55317 6.897302 17.122658 4.779265 4.93229 11.225597 7.581357 18.062093 7.470895l25.408338-0.452996c15.585307-0.277676 29.229925 10.407771 32.696818 25.60494l0 0.001013c9.661897 42.354662 27.137224 82.014653 51.93954 117.878392l0 0.001013c9.339632 13.504767 7.305708 31.826294-4.76913 42.952576l-24.538828 22.614353c-9.9416 9.162284-10.575998 24.703001-1.414727 34.644601l33.386953 36.228569c4.437744 4.815748 10.485804 7.615813 17.029424 7.882341 6.542606 0.265515 12.798417-2.02987 17.614164-6.468627l34.320308-31.628678c10.605387-9.773373 26.336626-11.510366 38.817844-4.284718l0.001013 0.001013c32.520484 18.824181 67.672806 32.050259 104.480034 39.310363l0.001013 0c15.435322 3.044298 26.561604 16.580481 26.561604 32.31172L458.092743 789.054328c0 13.540236 10.97731 24.517546 24.517546 24.517546l49.266151 0c13.540236 0 24.517546-10.97731 24.517546-24.517546l0-49.089817c0-15.11407 10.287174-28.28745 24.949261-31.951958l0.001013 0c34.914169-8.725502 68.109587-22.898109 98.661006-42.123603l0.001013-0.001013c12.587626-7.920851 28.922861-6.42201 39.859634 3.656401l45.763789 42.174274c9.940587 9.162284 25.482317 8.5289 34.644601-1.413714l33.38594-36.229582c4.438757-4.815748 6.735155-11.071558 6.468627-17.614164s-3.06558-12.590666-7.881328-17.029424l-40.377489-37.210568c-11.745478-10.824284-14.031742-28.516481-5.42177-41.970577l0 0c20.707106-32.361377 35.680311-67.672806 44.506141-104.954312l0-0.001013c3.56722-15.069479 17.152047-25.619128 32.636013-25.342466l49.395868 0.879644c6.541593 0.119583 12.749773-2.32376 17.461138-6.871966 4.712379-4.547193 7.37158-10.658084 7.489136-17.204744l0 0 0.876604-49.260071C938.936823 350.658144 936.268501 344.19661 931.325064 339.415319zM509.272222 524.645264c-79.069669 0-143.398206-64.328536-143.398206-143.398206s64.328536-143.398206 143.398206-143.398206 143.398206 64.328536 143.398206 143.398206S588.341891 524.645264 509.272222 524.645264zM509.272222 303.72082c-42.747867 0-77.526238 34.777358-77.526238 77.526238 0 42.747867 34.778372 77.526238 77.526238 77.526238 42.74888 0 77.526238-34.778372 77.526238-77.526238C586.79846 338.498179 552.020088 303.72082 509.272222 303.72082z"  horiz-adv-x="1024" />

    
    <glyph glyph-name="hujiaokefu" unicode="&#59047;" d="M281.986 570.147c67.087 67.087 124.591 108.618 6.389 252.376-118.202 146.953-194.873 35.141-258.766-31.946-73.477-73.477-3.195-351.41 268.35-622.954 271.544-271.544 549.478-341.826 622.954-268.35 63.893 63.893 175.705 143.759 31.946 258.766-146.953 118.202-188.484 60.698-252.376-6.389-47.92-44.725-162.926 51.114-265.155 150.148-102.228 105.423-201.262 223.625-153.343 268.35zM262.818 257.073z"  horiz-adv-x="1024" />

    
    <glyph glyph-name="guanbi" unicode="&#58905;" d="M562.88 341.44c0-28.032-22.784-50.816-50.88-50.816s-50.816 22.72-50.816 50.816v440.768c0 28.032 22.784 50.816 50.816 50.816s50.88-22.784 50.88-50.816v-440.768zM86.016 360.64c0 152.064 80.32 285.76 200.512 360.64 23.488 14.976 54.912 7.808 69.76-16 14.848-23.872 7.68-55.104-16.064-69.952-91.584-57.536-152.448-158.656-152.448-274.56 0.384-179.008 145.152-323.84 324.224-324.224 179.072 0.448 323.776 145.28 324.096 324.224 0 118.656-64 221.952-159.296 278.656-24.192 14.336-32.128 45.568-17.856 69.76 14.4 24.128 45.632 32.064 69.824 17.792 124.928-73.792 209.344-210.176 209.344-366.080 0-235.136-190.656-425.856-425.92-425.856-235.456-0.384-426.176 190.272-426.176 425.6z"  horiz-adv-x="1024" />

    
    <glyph glyph-name="cunchu" unicode="&#58895;" d="M880.64-49.493333H143.36c-35.498667 0-64.853333 29.354667-64.853333 64.853333V751.957333c0 35.498667 29.354667 64.853333 64.853333 64.853334h613.717333l188.416-187.733334V15.36c0-35.498667-29.354667-64.853333-64.853333-64.853333zM143.36 775.850667c-12.970667 0-23.893333-10.922667-23.893333-23.893334V15.36c0-12.970667 10.922667-23.893333 23.893333-23.893333h737.28c12.970667 0 23.893333 10.922667 23.893333 23.893333V612.693333l-163.84 163.157334H143.36zM665.6 528.042667H357.717333c-27.306667 0-49.834667 22.528-49.834666 49.834666v238.933334h407.552v-238.933334c0-27.306667-22.528-49.834667-49.834667-49.834666zM348.842667 775.850667v-197.973334c0-5.461333 4.778667-8.874667 8.874666-8.874666h307.882667c4.778667 0 8.874667 4.096 8.874667 8.874666v197.973334H348.842667zM789.845333-48.810667H234.837333V347.818667c0 27.306667 22.528 49.834667 49.834667 49.834666h454.656c27.306667 0 50.517333-22.528 50.517333-49.834666v-396.629334z m-514.048 40.96h473.088V347.818667c0 4.096-4.096 8.874667-9.557333 8.874666H284.672c-4.778667 0-8.874667-4.096-8.874667-8.874666v-355.669334zM568.661333 796.330667h40.96v-247.808h-40.96z"  horiz-adv-x="1024" />

    
    <glyph glyph-name="menzhenshoufei" unicode="&#58893;" d="M512 876.8C236.8 876.8 19.2 659.2 19.2 384s224-492.8 492.8-492.8c275.2 0 492.8 224 492.8 492.8S787.2 876.8 512 876.8z m0-947.2C262.4-70.4 57.6 134.4 57.6 384 57.6 633.6 262.4 838.4 512 838.4c249.6 0 454.4-204.8 454.4-454.4 0-249.6-204.8-454.4-454.4-454.4zM665.6 320c19.2 0 32 12.8 32 32s-12.8 32-32 32H544v51.2l147.2 179.2c12.8 12.8 6.4 32-6.4 44.8-12.8 12.8-32 6.4-44.8-6.4L512 492.8 384 652.8c-12.8 12.8-32 12.8-44.8 0-12.8-6.4-19.2-25.6-6.4-44.8l147.2-179.2V384H358.4c-19.2 0-32-12.8-32-32s12.8-32 32-32h121.6v-64H358.4c-19.2 0-32-12.8-32-32s12.8-32 32-32h121.6v-89.6c0-19.2 12.8-32 32-32s32 12.8 32 32V192h121.6c19.2 0 32 12.8 32 32s-12.8 32-32 32H544V320h121.6z"  horiz-adv-x="1024" />

    
    <glyph glyph-name="home" unicode="&#58992;" d="M950.3 406.6l-416.5 416.4c-12 12-31.5 12-43.5 0l-416.4-416.4c-19.4-19.4-5.7-52.5 21.7-52.5h66.8v-353.7c0-35.3 28.7-64 64-64h157.6v127.8c0 35.3 28.7 64 64 64h128c35.3 0 64-28.7 64-64v-127.8h156.6c35.3 0 64 28.7 64 64v353.7h67.8c27.5 0 41.2 33.2 21.9 52.5z"  horiz-adv-x="1024" />

    
    <glyph glyph-name="wushuju" unicode="&#58947;" d="M156.662278 196.241827h21.097186A10.444152 10.444152 0 0 0 187.994733 185.797675c0-5.765172-4.490985-10.444152-10.235269-10.444152H156.662278v-21.097186A10.444152 10.444152 0 0 0 146.218126 144.021068a10.277045 10.277045 0 0 0-10.444152 10.235269V175.353523H114.676787A10.444152 10.444152 0 0 0 104.441518 185.797675c0 5.765172 4.490985 10.444152 10.235269 10.444152H135.773974v21.097187A10.444152 10.444152 0 0 0 146.218126 227.574283c5.765172 0 10.444152-4.490985 10.444152-10.235269v-21.097187z m1378.628042 83.553215v21.097186A10.277045 10.277045 0 0 1 1524.846168 311.127497a10.444152 10.444152 0 0 1-10.444152-10.235269v-21.097186h-21.097186a10.277045 10.277045 0 0 1-10.235269-10.444152c0-5.598065 4.595427-10.444152 10.235269-10.444152h21.097186v-21.097187c0-5.744284 4.67898-10.235269 10.444152-10.235268a10.444152 10.444152 0 0 1 10.444152 10.235268V258.906738h21.097187c5.744284 0 10.235269 4.67898 10.235268 10.444152a10.444152 10.444152 0 0 1-10.235268 10.444152H1535.29032zM776.460024-64.861969H250.596979A20.80475 20.80475 0 0 0 229.77134-43.973665c0 11.530344 9.462402 20.888304 20.825639 20.888303h94.728457A83.010119 83.010119 0 0 0 334.212859 18.586804v605.96969A83.49055 83.49055 0 0 0 417.849627 708.005267H480.430984V728.998012A83.49055 83.49055 0 0 0 564.067752 812.446785h501.152182A83.448773 83.448773 0 0 0 1148.856702 728.998012v-605.969689c0-15.185797-4.052331-29.410732-11.133466-41.672166h115.554096c11.551232 0 20.909192-9.274407 20.909192-20.888304 0-11.530344-9.295295-20.888304-20.888304-20.888304H1002.638576v-20.992745c0-15.185797-4.052331-29.410732-11.133466-41.672166h11.196131c11.488567 0 20.825639-9.274407 20.825639-20.888303 0-11.530344-9.462402-20.888304-20.825639-20.888304h-109.893365c9.545955-16.000441 7.478013-36.972297-6.41271-50.863019a41.672166 41.672166 0 0 0-59.072122 0L776.460024-64.861969z m76.367638 41.776607h66.424806c22.977134 0 41.609501 18.59059 41.609501 41.881049V625.538244c0 22.559368-18.047494 40.690416-40.314426 40.690416H416.303892c-22.266932 0-40.314426-18.214601-40.314426-40.690416v-606.742557c0-23.123352 18.799473-41.881049 41.588613-41.881049h317.084449l-10.736588 10.757477a41.693054 41.693054 0 0 0-10.861918 40.377091l-19.718558 19.739447A146.259902 146.259902 0 0 0 502.363703 268.306475a146.218126 146.218126 0 0 0 220.517822-190.981761l19.739447-19.739447a41.630389 41.630389 0 0 0 40.377091-10.841029L852.827662-23.085362zM1002.638576 81.356157h62.852906A41.797496 41.797496 0 0 1 1107.080095 123.132764V728.893571c0 23.14424-18.632367 41.776607-41.588613 41.776607H563.775316A41.797496 41.797496 0 0 1 522.207592 728.893571v-20.888304h396.794216A83.448773 83.448773 0 0 0 1002.638576 624.556494V81.356157zM266.325872 849.001317h31.123572c8.773088 0 15.875111-6.955805 15.875111-15.666228 0-8.647758-7.102023-15.666228-15.875111-15.666228h-31.123572v-31.123572c0-8.773088-6.955805-15.875111-15.666228-15.875111a15.770669 15.770669 0 0 0-15.666228 15.875111V817.668861H203.869844A15.728893 15.728893 0 0 0 187.994733 833.335089c0 8.647758 7.102023 15.666228 15.875111 15.666228h31.123572V880.124889c0 8.773088 6.955805 15.875111 15.666228 15.875111 8.647758 0 15.666228-7.102023 15.666228-15.875111v-31.123572zM20.888304-43.973665c0 11.530344 9.462402 20.888304 20.825638 20.888303h125.455152c11.488567 0 20.825639-9.274407 20.825639-20.888303 0-11.530344-9.462402-20.888304-20.825639-20.888304H41.713942A20.80475 20.80475 0 0 0 20.888304-43.973665z m658.733544 135.021995a104.441518 104.441518 0 1 1-147.722083 147.722083 104.441518 104.441518 0 0 1 147.722083-147.722083zM459.542681 582.675445a20.888304 20.888304 0 0 0 20.867415 20.888304H710.202325a20.888304 20.888304 0 1 0 0-41.776608H480.430984A20.825639 20.825639 0 0 0 459.542681 582.675445z m0-104.441518c0 11.530344 9.295295 20.888304 20.742085 20.888303h334.505295c11.44679 0 20.742086-9.274407 20.742086-20.888303 0-11.530344-9.295295-20.888304-20.742086-20.888304H480.284766A20.762974 20.762974 0 0 0 459.542681 478.233927z m0-104.441519c0 11.530344 9.316183 20.888304 20.846527 20.888304h146.301679c11.509455 0 20.846527-9.274407 20.846527-20.888304 0-11.530344-9.316183-20.888304-20.846527-20.888303h-146.301679A20.80475 20.80475 0 0 0 459.542681 373.792408zM62.664911 499.12223a62.664911 62.664911 0 1 0 0 125.329822 62.664911 62.664911 0 0 0 0-125.329822z m0 31.332456a31.332456 31.332456 0 1 1 0 62.664911 31.332456 31.332456 0 0 1 0-62.664911zM1357.739739 624.452052a62.664911 62.664911 0 1 0 0 125.329822 62.664911 62.664911 0 0 0 0-125.329822z m0 31.332456a31.332456 31.332456 0 1 1 0 62.664911 31.332456 31.332456 0 0 1 0-62.664911z"  horiz-adv-x="1567" />

    
    <glyph glyph-name="tuandui-tianchong" unicode="&#58960;" d="M893.866667 153.60000000000002c0 4.266667-2.133333 8.533333-4.266667 14.933333 0 2.133333 0 4.266667-2.133333 6.4-2.133333 6.4-4.266667 12.8-8.533334 19.2v2.133334c-2.133333 6.4-6.4 10.666667-8.533333 17.066666-2.133333 2.133333-2.133333 4.266667-4.266667 6.4-2.133333 4.266667-6.4 8.533333-8.533333 12.8-2.133333 2.133333-2.133333 4.266667-4.266667 4.266667-4.266667 4.266667-8.533333 10.666667-14.933333 14.933333l-2.133333 2.133334-12.8 12.8c-2.133333 2.133333-4.266667 4.266667-6.4 4.266666-4.266667 2.133333-8.533333 6.4-10.666667 8.533334-2.133333 2.133333-4.266667 2.133333-6.4 4.266666-6.4 4.266667-12.8 8.533333-17.066667 10.666667-2.133333 2.133333-4.266667 2.133333-6.4 2.133333-4.266667 2.133333-8.533333 4.266667-14.933333 8.533334-2.133333 2.133333-6.4 2.133333-8.533333 4.266666l-12.8 6.4c-2.133333 2.133333-6.4 2.133333-8.533334 4.266667l-19.2 6.4c-17.066667 6.4-32 10.666667-49.066666 12.8 64 51.2 104.533333 138.666667 104.533333 236.8 0 164.266667-115.2 298.666667-256 298.666667S256 740.266667 256 576c0-98.133333 40.533333-185.6 102.4-238.933333-14.933333-2.133333-32-6.4-49.066667-12.8l-19.2-6.4c-2.133333-2.133333-6.4-2.133333-8.533333-4.266667l-12.8-6.4c-2.133333-2.133333-6.4-2.133333-8.533333-4.266667-4.266667-2.133333-8.533333-4.266667-14.933334-8.533333-2.133333-2.133333-4.266667-2.133333-6.4-2.133333-6.4-4.266667-12.8-8.533333-17.066666-10.666667-2.133333-2.133333-4.266667-2.133333-6.4-4.266667-4.266667-2.133333-8.533333-6.4-10.666667-8.533333-2.133333-2.133333-4.266667-4.266667-6.4-4.266667l-12.8-12.8-2.133333-2.133333-14.933334-14.933333c-2.133333-2.133333-2.133333-4.266667-4.266666-4.266667-2.133333-4.266667-6.4-8.533333-8.533334-12.8-2.133333-2.133333-2.133333-4.266667-4.266666-6.4-2.133333-8.533333-4.266667-12.8-6.4-19.2v-2.133333c-2.133333-6.4-6.4-12.8-8.533334-19.2 0-2.133333-2.133333-4.266667-2.133333-6.4-2.133333-4.266667-2.133333-8.533333-4.266667-14.933334v-6.4c-2.133333-2.133333-2.133333-8.533333-2.133333-14.933333v-21.333333c0-117.333333 53.333333-213.333333 170.666667-213.333334h426.666666c117.333333 0 170.666667 96 170.666667 213.333334v21.333333c0 6.4 0 12.8-2.133333 19.2v6.4z m-535.466667 469.333333c14.933333 53.333333 46.933333 96 85.333333 121.6 14.933333 8.533333 32-2.133333 32-19.2 0-6.4-4.266667-12.8-10.666666-17.066666-32-19.2-55.466667-53.333333-68.266667-98.133334-2.133333-8.533333-10.666667-14.933333-21.333333-14.933333-8.533333 0-19.2 14.933333-17.066667 27.733333zM298.666667 354.133333c-51.2 55.466667-85.333333 134.4-85.333334 221.866667 0 64 17.066667 121.6 46.933334 170.666667H256c-93.866667 0-170.666667-87.466667-170.666667-194.133334 0-64 27.733333-119.466667 68.266667-155.733333-72.533333-14.933333-153.6-70.4-153.6-136.533333v-14.933334c0-66.133333 27.733333-121.6 85.333333-136.533333V149.33333300000004c0 98.133333 108.8 179.2 213.333334 204.8zM870.4 396.8c42.666667 36.266667 68.266667 91.733333 68.266667 155.733333 0 106.666667-76.8 194.133333-170.666667 194.133334h-4.266667c29.866667-49.066667 46.933333-106.666667 46.933334-170.666667 0-87.466667-32-166.4-85.333334-221.866667 104.533333-25.6 213.333333-106.666667 213.333334-204.8v-40.533333c57.6 12.8 85.333333 68.266667 85.333333 136.533333v14.933334c0 66.133333-81.066667 121.6-153.6 136.533333z"  horiz-adv-x="1024" />

    
    <glyph glyph-name="baogaochaxun" unicode="&#58883;" d="M442.181818 453.818182h-162.909091c-13.963636 0-23.272727-9.309091-23.272727-23.272727s9.309091-23.272727 23.272727-23.272728h162.909091c13.963636 0 23.272727 9.309091 23.272727 23.272728s-9.309091 23.272727-23.272727 23.272727z m-162.909091 162.909091h465.454546c13.963636 0 23.272727 9.309091 23.272727 23.272727s-9.309091 23.272727-23.272727 23.272727H279.272727c-13.963636 0-23.272727-9.309091-23.272727-23.272727s9.309091-23.272727 23.272727-23.272727z m567.854546-602.763637c74.472727 79.127273 74.472727 207.127273-4.654546 286.254546-79.127273 81.454545-211.781818 81.454545-293.236363 0-79.127273-81.454545-79.127273-211.781818 0-293.236364 41.890909-39.563636 93.090909-60.509091 146.618181-60.509091 39.563636 0 79.127273 11.636364 114.036364 34.909091l104.727273-100.072727c9.309091-9.309091 23.272727-9.309091 32.581818 0 9.309091 9.309091 9.309091 23.272727 0 32.581818l-100.072727 100.072727z m-265.309091 23.272728c-62.836364 62.836364-62.836364 167.563636 0 230.4 32.581818 32.581818 72.145455 46.545455 114.036363 46.545454 41.890909 0 83.781818-16.290909 116.363637-46.545454 62.836364-62.836364 62.836364-167.563636 0-230.4-62.836364-65.163636-167.563636-65.163636-230.4 0zM977.454545 384V802.909091c0 51.2-41.890909 93.090909-93.090909 93.090909H139.636364C88.436364 896 46.545455 854.109091 46.545455 802.909091v-837.818182c0-51.2 41.890909-93.090909 93.090909-93.090909h279.272727c13.963636 0 23.272727 9.309091 23.272727 23.272727s-9.309091 23.272727-23.272727 23.272728H139.636364c-25.6 0-46.545455 20.945455-46.545455 46.545454V802.909091c0 25.6 20.945455 46.545455 46.545455 46.545454h744.727272c25.6 0 46.545455-20.945455 46.545455-46.545454v-418.909091c0-13.963636 9.309091-23.272727 23.272727-23.272727s23.272727 9.309091 23.272727 23.272727z"  horiz-adv-x="1024" />

    
    <glyph glyph-name="shipin" unicode="&#58898;" d="M512 896C228.072727 896 0 667.927273 0 384s228.072727-512 512-512 512 228.072727 512 512S795.927273 896 512 896z m221.090909-532.945455l-325.818182-186.181818c-11.636364-6.981818-25.6-2.327273-32.581818 9.309091-2.327273 2.327273-2.327273 6.981818-2.327273 11.636364V570.181818c0 4.654545 0 6.981818 2.327273 9.309091 2.327273 4.654545 6.981818 9.309091 11.636364 9.309091 6.981818 2.327273 13.963636 2.327273 20.945454 0l323.490909-186.181818c4.654545-2.327273 6.981818-4.654545 9.309091-9.309091 9.309091-9.309091 4.654545-23.272727-6.981818-30.254546z"  horiz-adv-x="1024" />

    
    <glyph glyph-name="yisheng" unicode="&#58900;" d="M980.871-43.783c0 132.76-77.722 248.223-189.904 303.2a98.84 98.84 0 0 0 8.26-39.595v-11.717c54.074-11.362 95-59.582 95-116.906v-64.246c8.209-7.072 13.412-17.534 13.412-29.218 0-21.296-17.264-38.559-38.559-38.559-21.296 0-38.56 17.264-38.56 38.559 0 12.837 6.28 24.2 15.927 31.21v65.63c0 38.945-31.863 70.808-70.807 70.808h-0.047c-38.945 0-70.808-31.863-70.808-70.808v-66.914c8.692-7.07 14.25-17.848 14.25-29.926 0-21.296-17.264-38.559-38.56-38.559-21.295 0-38.559 17.264-38.559 38.559 0 11.684 5.205 22.145 13.411 29.218v64.246c0 58.562 42.725 107.6 98.536 117.565-2.186 28.777-13.86 54.999-31.876 75.547a334.347 334.347 0 0 1-56.056 8.542c-9.26-212.545-74.647-377.267-153.942-377.267-79.302 0-144.691 164.748-153.944 377.317-0.411-0.026-0.818-0.066-1.228-0.094-19.253-22.664-30.918-51.944-30.918-83.835v-97.43c27.397-10.071 46.942-36.396 46.942-67.287 0-39.582-32.088-71.67-71.67-71.67s-71.67 32.088-71.67 71.67c0 32.544 21.7 60.005 51.413 68.747V229.883c0 19.534 5.71 37.79 15.513 53.221C150.798 245.769 42.32 113.065 42.32-43.783v-10.453h0.716c-0.184-0.82-0.312-1.645-0.312-2.474 0-39.373 210.01-71.292 469.073-71.292s469.074 31.92 469.074 71.293c0 0.828-0.127 1.652-0.312 2.473h0.312v10.453zM517.23 663.299c-116.316 0-210.61-35.887-210.61-80.157 0-1.512 0.121-3.013 0.338-4.505h-0.338l44.491-209.173a167.448 167.448 0 0 1 2.33-10.956l0.122-0.574h0.02c18.403-73.304 85.041-128.006 163.844-128.006h0.022c84.225 0 154.562 62.48 166.956 143.38l43.432 205.33h-0.337c0.217 1.49 0.337 2.993 0.337 4.505 0 44.269-94.293 80.156-210.607 80.156z m-1.049 15.648c103.407 0 191.19-34.392 222.474-82.147h8.322V797.419h-0.04c0.014 0.371 0.04 0.743 0.04 1.117 0 44.751-102.846 81.03-229.713 81.03S287.55 843.288 287.55 798.536c0-0.373 0.026-0.746 0.04-1.117h-0.04v-200.62h6.157c31.283 47.756 119.067 82.147 222.474 82.147z m-63.707 105.27c0 8.643 7.073 15.716 15.718 15.716h33.53V833.46c0 8.644 7.072 15.718 15.716 15.718s15.717-7.073 15.717-15.717v-33.53h33.53c8.645 0 15.718-7.073 15.718-15.717s-7.072-15.718-15.718-15.718h-33.53v-33.53c0-8.644-7.072-15.716-15.717-15.716s-15.716 7.072-15.716 15.716v33.531h-33.53c-8.645 0-15.718 7.074-15.718 15.718z"  horiz-adv-x="1024" />

    
    <glyph glyph-name="navicon-tcda" unicode="&#58950;" d="M924.16 584.192h-808.96c-55.296 0-100.352 45.056-100.352 100.352v26.112c0 55.296 45.056 100.352 100.352 100.352h808.448c55.296 0 100.352-45.056 100.352-100.352v-26.112c0.512-26.112-9.728-51.2-28.672-70.656-18.944-18.944-44.544-29.696-71.168-29.696z m-808.96 175.616c-26.624 0-49.152-22.528-49.152-49.152v-26.112c0-26.624 22.528-49.152 49.152-49.152h808.96c12.8 0 25.6 5.12 34.816 14.848 9.216 9.216 14.336 21.504 13.824 34.304v26.624c0 26.624-22.528 49.152-49.152 49.152H115.2zM521.728 691.2m-32.256 0a32.256 32.256 0 1 1 64.512 0 32.256 32.256 0 1 1-64.512 0ZM521.728 656.384c-18.944 0-34.816 15.872-34.816 34.816s15.872 34.816 34.816 34.816c18.944 0 34.816-15.872 34.816-34.816s-15.872-34.816-34.816-34.816z m0 64.512c-16.384 0-29.696-13.312-29.696-29.696s13.312-29.696 29.696-29.696 29.696 13.312 29.696 29.696-13.312 29.696-29.696 29.696zM519.168 165.88800000000003c-4.096 0-8.704 1.024-12.288 3.072l-199.168 111.616c-7.68 4.608-12.8 12.8-13.312 22.016 0 9.216 4.608 17.408 12.288 22.528l199.168 121.344c8.192 5.12 18.432 5.12 26.624 0l199.168-121.344c7.68-4.608 12.288-13.312 12.288-22.528 0-9.216-5.12-17.408-13.312-22.016L531.456 168.96000000000004c-3.584-2.048-8.192-3.072-12.288-3.072z m-148.48 138.24l148.48-82.944 148.48 82.944-148.48 90.624-148.48-90.624zM522.752 21.50400000000002c-4.096 0-8.704 1.024-12.288 3.072L435.712 66.55999999999995l-124.928 69.632c-8.192 4.608-12.8 12.8-13.312 22.016 0 9.216 4.608 17.408 12.288 22.528l136.192 82.944 26.624-43.52L373.76 159.74400000000003l148.992-83.456 148.48 82.944-98.304 59.904 26.624 43.52 135.68-82.432c7.68-4.608 12.288-13.312 12.288-22.528s-5.12-17.408-13.312-22.016l-199.168-111.616c-3.584-1.536-8.192-2.56-12.288-2.56zM998.4-122.88H40.448c-14.336 0-25.6 11.264-25.6 25.6V711.168h51.2V-71.67999999999995H972.8V711.168h51.2V-97.27999999999997c0-14.336-11.264-25.6-25.6-25.6z"  horiz-adv-x="1030" />

    
    <glyph glyph-name="dengji-" unicode="&#58884;" d="M638.1 309.6H303.6c-7.7 0-14 6.3-14 14s6.3 14 14 14h334.5c7.7 0 14-6.3 14-14s-6.2-14-14-14zM570.6 172.89999999999998h-267c-7.7 0-14 6.3-14 14s6.3 14 14 14h266.9c7.7 0 14-6.3 14-14 0.1-7.7-6.2-14-13.9-14zM681.5 443.2H303.6c-7.7 0-14 6.3-14 14s6.3 14 14 14h377.8c7.7 0 14-6.3 14-14s-6.2-14-13.9-14zM499.7-23.100000000000023H194.4c-19.3 0-35 14.2-35 31.6V624.2c0 17.4 15.7 31.6 35 31.6H318v28H194.4c-34.7 0-63-26.7-63-59.6v-615.7c0-32.9 28.3-59.6 63-59.6h305.3c7.7 0 14 6.3 14 14 0 7.8-6.3 14-14 14zM794.8 683.8H681.3v-28h113.6c19.3 0 35-14.2 35-31.6v-293.6c0-7.7 6.3-14 14-14s14 6.3 14 14V624.2c0 32.9-28.3 59.6-63.1 59.6zM647.5 593.3H351.8c-26.4 0-47.8 21.4-47.8 47.8v54.5c0 26.4 21.5 47.8 47.8 47.8h49.6c5.3 49.5 47.4 88.2 98.2 88.2s92.9-38.7 98.2-88.2h49.6c26.4 0 47.8-21.4 47.8-47.8v-54.5c0.1-26.4-21.4-47.8-47.7-47.8z m-295.7 122c-10.9 0-19.8-8.9-19.8-19.8V641c0-10.9 8.9-19.8 19.8-19.8h295.7c10.9 0 19.8 8.9 19.8 19.8v54.5c0 10.9-8.9 19.8-19.8 19.8h-63.2c-3.8 0-7.5 1.6-10.1 4.3-2.6 2.7-4 6.4-3.9 10.3l0.2 2.8c0 39-31.8 70.8-70.8 70.8s-70.8-31.8-70.8-70.8l0.2-2.8c0.2-3.8-1.3-7.5-3.9-10.3-2.6-2.7-6.3-4.3-10.1-4.3h-63.3zM616.6-63.5c-6.9 0-13.4 2.1-18.8 6.2-8 6.1-12.4 15.9-12.1 26.8l2.7 98.5c0.2 8.7 3.5 17.7 9.2 25.1l144.8 189c13.2 17.2 36 22.1 50.8 10.7l91.8-70.3c14.8-11.3 16.1-34.6 2.9-51.8l-144.8-189c-5.7-7.4-13.4-12.9-21.8-15.4l-94.4-28.2c-3.5-1.1-7-1.6-10.3-1.6zM774.4 271c-2.5 0-6.5-1.7-9.8-6L619.8 76c-2.1-2.7-3.3-5.9-3.4-8.8l-2.7-98.5c0-1.8 0.4-3.2 1.1-3.8 0.7-0.6 2.2-0.6 3.9-0.1l94.4 28.2c2.7 0.8 5.5 2.9 7.6 5.6l144.8 189c4.3 5.6 3.9 11.3 2.3 12.6L776 270.5c-0.2 0.4-0.8 0.5-1.6 0.5zM842.8 123.20000000000005c-3 0-6 0.9-8.5 2.9l-121 92.7c-6.1 4.7-7.3 13.5-2.6 19.6 4.7 6.1 13.5 7.3 19.6 2.6l121-92.7c6.1-4.7 7.3-13.5 2.6-19.6-2.8-3.6-6.9-5.5-11.1-5.5z"  horiz-adv-x="1024" />

    
    <glyph glyph-name="paiban" unicode="&#59230;" d="M846.164064 825.664212h-60.163121V867.828437c0 11.715809-9.483983 21.191606-21.177279 21.191605-11.695343 0-21.177279-9.475796-21.17728-21.191605v-42.164225h-58.782683V867.828437c0 11.715809-9.468633 21.191606-21.17728 21.191605-11.69432 0-21.176256-9.475796-21.176256-21.191605v-42.164225h-58.755054V867.828437c0 11.715809-9.497286 21.191606-21.191606 21.191605-11.695343 0-21.163976-9.475796-21.163977-21.191605v-42.164225h-58.789847V867.828437c0 11.715809-9.468633 21.191606-21.177279 21.191605-11.67283 0-21.170116-9.475796-21.170116-21.191605v-42.164225h-58.762218V867.828437c0 11.715809-9.489099 21.191606-21.177279 21.191605-11.702506 0-21.183419-9.475796-21.18342-21.191605v-42.164225h-58.762217V867.828437c0 11.715809-9.497286 21.191606-21.17728 21.191605-11.715809 0-21.177279-9.475796-21.177279-21.191605v-42.164225h-60.184611c-35.091146 0-63.546165-28.455019-63.546164-63.531838v-819.634904c0-35.083983 28.455019-63.517512 63.546164-63.517512h668.328129c35.098309 0 63.546165 28.433529 63.546165 63.517512V762.132374c-0.002047 35.07682-28.449902 63.531838-63.548212 63.531838zM177.835936-57.50253V606.388552h454.809577c11.695343 0 21.177279 9.48296 21.17728 21.177279 0 11.701483-9.48296 21.177279-21.17728 21.17728H177.835936V762.132374h60.18461v-43.770812c0-11.69432 9.46147-21.177279 21.177279-21.177279 11.679994 0 21.177279 9.48296 21.17728 21.177279v43.770812h58.762218v-43.770812c0-11.69432 9.481936-21.177279 21.183419-21.177279 11.68818 0 21.177279 9.48296 21.177279 21.177279v43.770812h58.762218v-43.770812c0-11.69432 9.496263-21.177279 21.170116-21.177279 11.708646 0 21.177279 9.48296 21.17728 21.177279v43.770812h58.789847v-43.770812c0-11.69432 9.468633-21.177279 21.163976-21.177279 11.69432 0 21.191606 9.48296 21.191606 21.177279v43.770812h58.755054v-43.770812c0-11.69432 9.48296-21.177279 21.176257-21.177279 11.708646 0 21.177279 9.48296 21.177279 21.177279v43.770812h58.782684v-43.770812c0-11.69432 9.48296-21.177279 21.177279-21.177279s21.177279 9.48296 21.17728 21.177279v43.770812h60.163121v-113.389263h-94.951369c-11.681017 0-21.177279-9.475796-21.17728-21.17728 0-11.69432 9.496263-21.177279 21.17728-21.177279h94.951369v-663.890059H177.835936zM740.940768 466.377008H483.136683c-11.702506 0-21.176256-9.496263-21.176256-21.17728 0-11.715809 9.474773-21.177279 21.176256-21.177279h257.804085c11.708646 0 21.191606 9.46147 21.191606 21.177279 0 11.679994-9.48296 21.177279-21.191606 21.17728zM364.090594 466.377008h-81.031362c-11.702506 0-21.177279-9.496263-21.17728-21.17728 0-11.715809 9.475796-21.177279 21.17728-21.177279h81.031362c11.695343 0 21.176256 9.46147 21.176257 21.177279 0.001023 11.679994-9.480913 21.177279-21.176257 21.17728zM740.940768 355.136683H483.136683c-11.702506 0-21.176256-9.468633-21.176256-21.162953 0-11.695343 9.474773-21.191606 21.176256-21.191606h257.804085c11.708646 0 21.191606 9.496263 21.191606 21.191606 0 11.69432-9.48296 21.162953-21.191606 21.162953zM364.090594 355.136683h-81.031362c-11.702506 0-21.177279-9.468633-21.17728-21.162953 0-11.695343 9.475796-21.191606 21.17728-21.191606h81.031362c11.695343 0 21.176256 9.496263 21.176257 21.191606 0.001023 11.69432-9.480913 21.162953-21.176257 21.162953zM740.940768 238.767558H483.136683c-11.702506 0-21.176256-9.48296-21.176256-21.176256 0-11.695343 9.474773-21.177279 21.176256-21.17728h257.804085c11.708646 0 21.191606 9.48296 21.191606 21.17728 0 11.693297-9.48296 21.176256-21.191606 21.176256zM364.090594 238.767558h-81.031362c-11.702506 0-21.177279-9.48296-21.17728-21.176256 0-11.695343 9.475796-21.177279 21.17728-21.17728h81.031362c11.695343 0 21.176256 9.48296 21.176257 21.17728 0.001023 11.693297-9.480913 21.176256-21.176257 21.176256zM740.940768 115.579134H483.136683c-11.702506 0-21.176256-9.483983-21.176256-21.177279 0-11.695343 9.474773-21.177279 21.176256-21.17728h257.804085c11.708646 0 21.191606 9.48296 21.191606 21.17728 0 11.693297-9.48296 21.177279-21.191606 21.177279zM364.090594 115.579134h-81.031362c-11.702506 0-21.177279-9.483983-21.17728-21.177279 0-11.695343 9.475796-21.177279 21.17728-21.17728h81.031362c11.695343 0 21.176256 9.48296 21.176257 21.17728 0.001023 11.693297-9.480913 21.177279-21.176257 21.177279z"  horiz-adv-x="1024" />

    
    <glyph glyph-name="qian" unicode="&#59267;" d="M943.454707 700.394388H80.543247c-31.766431 0-57.52402-25.757589-57.52402-57.526066v-517.736644c0-31.769501 25.757589-57.52709 57.52402-57.527089h862.91146c31.741872 0 57.525043 25.757589 57.525043 57.527089V642.868322c0 31.768477-25.783171 57.526066-57.525043 57.526066z m0-575.26271H80.543247V642.868322h862.91146v-517.736644zM138.070336 527.786513h57.52709v-287.630331h-57.52709zM828.401551 527.786513h57.52709v-287.630331h-57.52709zM454.466771 355.208314h28.760986v-57.497413H396.939681v-57.553696h86.288076v-57.49946h57.542439v57.49946h28.76201c47.58262 0 86.288076 38.734109 86.288076 86.317752 0 47.581597-38.705456 86.288076-86.288076 86.288076h-28.76201v57.528113h86.2891v57.497414h-86.2891v57.553695h-57.542439v-57.553695h-28.760986c-47.583643 0-86.288076-38.677827-86.288077-86.260447s38.704433-86.319799 86.288077-86.319799z m86.304449 0h28.762009c15.842795 0 28.76201-12.863957 28.76201-28.73438s-12.919215-28.763033-28.76201-28.763033h-28.762009v57.497413z m-86.304449 115.081809h28.760986v-57.528113h-28.760986c-15.871447 0-28.76201 12.866003-28.76201 28.764056-0.001023 15.870424 12.890562 28.764056 28.76201 28.764057z"  horiz-adv-x="1024" />

    
    <glyph glyph-name="zhengshifuwushangliebiao-" unicode="&#58889;" d="M819.2 486.4h-273.066667V588.8h68.266667c37.546667 0 68.266667 30.72 68.266667 68.266667V759.466667c0 37.546667-30.72 68.266667-68.266667 68.266666h-204.8c-37.546667 0-68.266667-30.72-68.266667-68.266666v-102.4c0-37.546667 30.72-68.266667 68.266667-68.266667h68.266667v-102.4H204.8c-37.546667 0-68.266667-30.72-68.266667-68.266667v-102.4c0-20.48 13.653333-34.133333 34.133334-34.133333s34.133333 13.653333 34.133333 34.133333v102.4h273.066667v-102.4c0-20.48 13.653333-34.133333 34.133333-34.133333s34.133333 13.653333 34.133333 34.133333v102.4h273.066667v-102.4c0-20.48 13.653333-34.133333 34.133333-34.133333s34.133333 13.653333 34.133334 34.133333v102.4c0 37.546667-30.72 68.266667-68.266667 68.266667zM409.6 657.066667V759.466667h204.8v-102.4h-204.8zM170.666667-25.600000000000023c-75.093333 0-136.533333 61.44-136.533334 136.533333s61.44 136.533333 136.533334 136.533334 136.533333-61.44 136.533333-136.533334-61.44-136.533333-136.533333-136.533333z m0 204.8c-37.546667 0-68.266667-30.72-68.266667-68.266667s30.72-68.266667 68.266667-68.266666 68.266667 30.72 68.266666 68.266666-30.72 68.266667-68.266666 68.266667zM512-25.600000000000023c-75.093333 0-136.533333 61.44-136.533333 136.533333s61.44 136.533333 136.533333 136.533334 136.533333-61.44 136.533333-136.533334-61.44-136.533333-136.533333-136.533333z m0 204.8c-37.546667 0-68.266667-30.72-68.266667-68.266667s30.72-68.266667 68.266667-68.266666 68.266667 30.72 68.266667 68.266666-30.72 68.266667-68.266667 68.266667zM853.333333-25.600000000000023c-75.093333 0-136.533333 61.44-136.533333 136.533333s61.44 136.533333 136.533333 136.533334 136.533333-61.44 136.533334-136.533334-61.44-136.533333-136.533334-136.533333z m0 204.8c-37.546667 0-68.266667-30.72-68.266666-68.266667s30.72-68.266667 68.266666-68.266666 68.266667 30.72 68.266667 68.266666-30.72 68.266667-68.266667 68.266667z"  horiz-adv-x="1024" />

    
    <glyph glyph-name="yuyue" unicode="&#58896;" d="M736.4 666.5c25.9 0 46.8 21 46.8 46.8 0 25.9-21 46.8-46.8 46.8s-46.8-21-46.8-46.8c0-25.9 21-46.8 46.8-46.8z m108.2-173.4c0-30.7 24.9-55.6 55.6-55.6s55.6 24.9 55.6 55.6c0 30.7-24.9 55.6-55.6 55.6s-55.6-24.9-55.6-55.6z m-6.1 73.8c29.1 0 52.7 23.6 52.7 52.7s-23.6 52.7-52.7 52.7-52.7-23.6-52.7-52.7 23.6-52.7 52.7-52.7z m70.9-158.2c-27.6 1.8-52.6-19.5-54.5-47.7-12-179.4-162.4-320-342.5-320-189.2 0-343.2 154-343.2 343.2 0 183.3 143.3 333.9 326.2 342.8 28.3 1.4 50 25.4 48.7 53.6-1.4 28.3-25.6 50.4-53.6 48.7-237.6-11.5-423.7-207-423.7-445.1 0-245.7 199.9-445.7 445.7-445.7 233.8 0 429.1 182.6 444.7 415.6 1.8 28.3-19.6 52.7-47.8 54.6zM620.5 719.4c24.2 0 43.9 19.7 43.9 43.9s-19.7 43.9-43.9 43.9-43.9-19.7-43.9-43.9 19.7-43.9 43.9-43.9zM462.2 617.9v-234.7c0-28.3 22.9-51.2 51.2-51.2h232.7c28.3 0 51.2 22.9 51.2 51.2s-22.9 51.2-51.2 51.2H564.6V617.9c0 28.3-22.9 51.2-51.2 51.2s-51.2-22.9-51.2-51.2z"  horiz-adv-x="1024" />

    
    <glyph glyph-name="genzongjilu" unicode="&#58986;" d="M241.581 138.058l-24.876-7.217-14.453 8.344-1.709-58.376 10.379-5.992 51.211 29.796-14.364 8.293-6.188 25.152zM848.5 832.5h-672c-35.346 0-64-28.654-64-64v-768c0-35.346 28.654-64 64-64h672c35.346 0 64 28.654 64 64v768c0 35.346-28.654 64-64 64z m-336.507-96.736c8.834 15.301 28.403 20.542 43.709 11.705l55.426-32c15.305-8.837 20.551-28.404 11.717-43.705l-15.996-27.706-110.851 64 15.995 27.706z m-31.992-55.411l110.851-64-15.996-27.705-110.851 64 15.996 27.705zM282.464 87.61l-80.307-42.039c-9.825-5.143-21.662 1.692-22.12 12.771l-3.746 90.567a17.378 17.378 0 0 0 2.314 9.409L448.01 624.942l110.851-64-269.405-466.624a17.39 17.39 0 0 0-6.992-6.708zM816.5 0.5h-400c-17.673 0-32 14.327-32 32s14.327 32 32 32h400c17.673 0 32-14.327 32-32s-14.327-32-32-32z m0 128h-336c-17.673 0-32 14.327-32 32s14.327 32 32 32h336c17.673 0 32-14.327 32-32s-14.327-32-32-32z m0 128h-272c-17.673 0-32 14.327-32 32s14.327 32 32 32h272c17.673 0 32-14.327 32-32s-14.327-32-32-32z"  horiz-adv-x="1024" />

    
    <glyph glyph-name="shoufeiguanli" unicode="&#58940;" d="M624.128 287.744a31.232 31.232 0 0 0 33.792-31.232 32.768 32.768 0 0 0-33.792-31.232h-80.896v-76.288a31.744 31.744 0 1 0-62.976 0v78.336H399.872a31.232 31.232 0 1 0 0 62.464h80.896V332.8H399.872a31.232 31.232 0 0 0-33.792 31.232 32.768 32.768 0 0 0 33.792 31.232h45.056l-15.872 31.232L409.6 466.944a32.256 32.256 0 0 0 11.264 44.544 34.304 34.304 0 0 0 39.936-15.36l15.872-31.232 15.872-31.232 15.872-33.792 15.872 33.792 15.872 31.232 15.872 31.232a32.256 32.256 0 0 0 42.496 15.872 34.304 34.304 0 0 0 11.264-44.544l-11.264-37.888-15.872-33.792h42.496a31.232 31.232 0 1 0 0-62.464h-79.36v-45.056z m212.992 327.168H187.392a31.232 31.232 0 0 1-33.792-31.744V61.44a33.792 33.792 0 0 1 33.792-35.84h649.216a33.792 33.792 0 0 1 33.792 35.84V583.168a31.232 31.232 0 0 1-33.792 31.744zM241.152 679.424h541.696a31.232 31.232 0 0 1 33.792 31.232 32.768 32.768 0 0 1-33.792 31.744H241.152a31.232 31.232 0 0 1 0-62.976z"  horiz-adv-x="1024" />

    
    <glyph glyph-name="icon-lock" unicode="&#58936;" d="M793.20000031 384v-400.00000031H230.79999969V384h562.40000062m79.99999969 79.99999969H150.8v-559.99999969h722.4V463.99999969zM392 223.99999968999998h-79.99999969v-79.99999969h79.99999969v79.99999969zM552.00000031 223.99999968999998h-80.00000062v-79.99999969h80.00000062v79.99999969zM711.99999969 223.99999968999998h-79.99999969v-79.99999969h79.99999969v79.99999969zM350.79999969 463.99999969V664.00000031a120 120 0 0 0 120 120h80.00000062a120 120 0 0 0 120-120v-200.00000062h79.99999969V664.00000031a199.99999969 199.99999969 0 0 1-199.99999969 199.99999969H470.79999969a199.99999969 199.99999969 0 0 1-199.99999969-199.99999969v-200.00000062z"  horiz-adv-x="1024" />

    
    <glyph glyph-name="gengduo" unicode="&#58941;" d="M925 85H99.5c-12-0.7-23.5 5.3-29.7 15.7-6.2 10.3-6.2 23.3 0 33.6s17.7 16.4 29.7 15.7H925c12 0.7 23.5-5.3 29.7-15.7 6.2-10.3 6.2-23.3 0-33.6-6.3-10.4-17.7-16.4-29.7-15.7zM925 361.3H99.5c-12-0.7-23.5 5.3-29.7 15.7-6.2 10.3-6.2 23.3 0 33.6s17.7 16.4 29.7 15.7H925c12 0.7 23.5-5.3 29.7-15.7 6.2-10.3 6.2-23.3 0-33.6-6.3-10.3-17.7-16.4-29.7-15.7zM925 616.3H99.5c-12-0.7-23.5 5.3-29.7 15.7-6.2 10.3-6.2 23.3 0 33.6s17.7 16.4 29.7 15.7H925c12 0.7 23.5-5.3 29.7-15.7 6.2-10.3 6.2-23.3 0-33.6-6.3-10.3-17.7-16.4-29.7-15.7z"  horiz-adv-x="1024" />

    
    <glyph glyph-name="fuzhi" unicode="&#59145;" d="M740.6 712.7v-71.5h-57.2v71.5c0 3.8-1.4 7.3-4.2 10-2.8 2.8-6.2 4.2-10 4.2H183.4c-3.8 0-7.3-1.4-10-4.2-2.7-2.8-4.2-6.2-4.2-10v-485.9c0-3.8 1.4-7.3 4.2-10 2.8-2.8 6.2-4.2 10-4.2h71.5v-57.2h-71.5c-19.6 0-36.5 7-50.4 20.9-14 14-21 30.9-21 50.5V712.7c0 19.6 7 36.5 20.9 50.4 13.9 13.9 30.8 20.9 50.4 20.9h485.9c19.6 0 36.5-7.1 50.4-20.9 14-14 21-30.8 21-50.4z m171.5-171.5v-485.9c0-19.6-7.1-36.5-20.9-50.4-14-14-30.8-20.9-50.4-20.9H354.9c-19.6 0-36.5 7.1-50.4 20.9-14 14-20.9 30.8-20.9 50.4V541.2c0 19.6 7 36.5 20.9 50.4 13.9 13.9 30.8 20.9 50.4 20.9h485.9c19.6 0 36.5-7.1 50.4-20.9 13.9-14 20.9-30.8 20.9-50.4z"  horiz-adv-x="1024" />

    
    <glyph glyph-name="yunyaofang" unicode="&#58890;" d="M499.783575 627.646113c7.778374-8.235925 18.187668-12.353887 28.482574-12.353888 10.294906 0 20.7042 4.117962 28.596961 12.353888 15.671135 16.700626 15.671135 43.581769-0.228775 60.282395-60.968722 63.828418-141.840929 99.059875-227.746202 99.059874-86.01966 0-166.891868-35.117069-227.746202-98.831099-15.785523-16.700626-15.899911-43.581769-0.114388-60.168007 15.671135-16.586238 41.294013-16.815013 57.079535-0.114388 45.640751 47.81412 106.266309 74.123324 170.895443 74.123325 64.514745-0.114388 125.140304-26.423592 170.781054-74.3521zM589.692422 700.396783c7.892761-7.892761 17.958892-11.896336 27.910635-11.896336 10.63807 0 21.276139 4.461126 29.168901 13.26899 15.442359 16.929401 14.87042 43.924933-1.143879 60.168007C559.951582 848.414656 447.508329 896 329.002521 896 210.267936 896 97.824683 848.414656 12.376962 762.051832c-16.014298-16.357462-16.586238-43.238606-1.143878-60.168007 15.442359-17.043789 41.065237-17.50134 57.079535-1.372654 70.234138 71.14924 162.888293 110.269884 260.689902 110.269884 97.687221 0.114388 190.226988-39.120643 260.689901-110.384272zM329.002521 678.77748c-53.075961 0-103.978552-23.678284-139.553173-65.086685-14.984808-17.386953-13.726542-44.268097 2.745308-60.168007 16.586238-15.785523 41.98034-14.412869 56.965148 2.974084 20.589812 24.021448 48.957998 37.290438 79.728329 37.290438 30.312779 0 59.367292-13.612154 79.842716-37.404826 8.007149-9.265416 18.873995-13.955317 29.855228-13.955317 9.722967 0 19.445934 3.546023 27.10992 11.095621 16.47185 15.785523 17.844504 42.666667 2.859696 60.05362-35.57462 41.4084-86.477212 65.201072-139.553172 65.201072zM1024.25185 530.4164430000001H72.201806v-2.745308h68.632707v-66.116175h541.855228V258.859696H72.201806v-68.861483H1024.25185V530.4164430000001z m-68.060768-137.151027v-66.688115h-68.861484V258.859696H821.327811v67.717605h-68.975871v66.688115H821.327811v68.289544h66.001787v-68.289544h68.861484zM140.834513 461.55496V527.671135h-68.632707v-268.811439h68.632707zM821.213423 461.55496v-68.289544h-68.861483v-66.688115h68.861483V258.859696h66.001787v67.717605h68.975872v66.688115h-68.975872v68.289544zM172.977498 328.75067v34.773906c8.007149 0 13.497766 0.457551 16.47185 1.258266 5.147453 1.487042 9.265416 4.117962 12.2395 7.892761 2.974084 3.774799 4.461126 8.579088 4.461126 14.298481 0 5.147453-1.143878 9.608579-3.431636 13.383378s-5.376229 6.405719-9.379803 8.007149-10.409294 2.516533-19.445934 2.516533h-16.586238V328.63628200000005h15.671135z m0 67.031278h4.461126c4.80429 0 8.121537-0.571939 9.951743-1.60143 2.516533-1.487042 3.660411-3.774799 3.660411-6.977658 0-1.830206-0.457551-3.431635-1.258266-4.689902-0.915103-1.258266-2.058981-2.173369-3.660411-2.745308-1.487042-0.571939-4.23235-0.800715-8.121538-0.800715h-4.918677v16.815013zM229.370706 353.22966899999994c0 6.520107 0.228776 10.752458 0.686327 12.468276 0.800715 3.546023 2.402145 6.291332 4.575514 8.350312 2.173369 2.058981 4.918677 3.088472 8.00715 3.088472 2.402145 0 4.346738-0.571939 6.062555-1.830205 1.60143-1.258266 2.745308-3.088472 3.431636-5.605005 0.686327-2.516533 1.029491-7.320822 1.02949-14.298481v-26.652368h14.984808v40.150134c0 6.977659-1.715818 12.353887-5.261841 15.899911-4.117962 4.117962-9.265416 6.291332-15.213583 6.291331-3.088472 0-6.176944-0.686327-9.151028-1.944593-2.974084-1.258266-6.062556-3.20286-9.03664-5.83378v29.626452h-15.099195V328.63628200000005h15.099195v24.593387zM303.379643 327.14923999999996c3.546023 0 6.748883 0.571939 9.722967 1.830206 2.974084 1.258266 5.948168 3.317248 8.922252 6.176944v-6.40572h15.213583v60.854334h-15.213583v-6.748882c-2.745308 2.745308-5.719392 4.80429-8.922252 6.176943-3.20286 1.372654-6.634495 2.058981-10.294906 2.058981-7.892761 0-14.641644-2.974084-20.246649-9.036639-5.490617-5.948168-8.350313-13.726542-8.350313-23.106345 0-9.03664 2.859696-16.586238 8.579089-22.763182 5.83378-5.948168 12.697051-9.03664 20.589812-9.03664z m-9.151028 44.954424c3.088472 3.317248 7.092046 5.033065 11.781948 5.033065 4.80429 0 8.807864-1.60143 12.010724-4.918677s4.689902-7.549598 4.689902-12.811439c0-5.376229-1.60143-9.722967-4.689902-13.154602-3.20286-3.317248-7.092046-5.033065-11.896336-5.033066-4.689902 0-8.579088 1.715818-11.781948 5.033066-3.20286 3.431635-4.80429 7.663986-4.804289 12.925826 0 5.261841 1.60143 9.494191 4.689901 12.925827zM358.628973 353.344057v2.974084c0 8.464701 0.800715 14.184093 2.402145 17.158177 1.60143 2.859696 3.660411 4.346738 5.948168 4.346738 1.143878 0 2.63092-0.457551 4.461126-1.372654l4.804289 13.154602c-2.173369 1.029491-4.23235 1.60143-6.176944 1.60143-2.745308 0-5.376229-0.800715-7.663985-2.402144-2.402145-1.60143-4.23235-3.889187-5.605005-6.863271v7.663985h-13.040214v-60.854334h15.099195v24.593387zM393.059714 355.86059c0 5.83378 0.457551 10.180518 1.487042 12.811439 1.029491 2.745308 2.63092 4.80429 4.689902 6.291331 2.058981 1.487042 4.346738 2.287757 6.977659 2.287757 2.287757 0 4.23235-0.571939 5.83378-1.830205 1.60143-1.143878 2.859696-2.974084 3.660411-5.490617 0.800715-2.402145 1.258266-6.405719 1.258266-11.781948V328.63628200000005h15.327972v27.453084c0 5.83378 0.457551 10.06613 1.487042 12.69705 1.029491 2.63092 2.516533 4.689902 4.575514 6.176944 2.058981 1.487042 4.461126 2.287757 6.977658 2.287757 3.431635 0 5.948168-1.258266 7.663986-3.660411s2.516533-7.092046 2.516533-13.955317v-30.884719h15.327971v35.689008c0 7.320822-0.686327 12.582663-2.173369 15.785523-1.487042 3.20286-3.774799 5.83378-7.092047 7.892761-3.317248 2.058981-7.092046 2.974084-11.438784 2.974084-4.23235 0-8.007149-0.915103-11.553173-2.745308-3.546023-1.830206-6.520107-4.575514-8.922252-8.121537-1.830206 3.546023-4.346738 6.291332-7.43521 8.121537-3.088472 1.830206-6.520107 2.745308-10.294906 2.745308s-7.206434-0.686327-10.409294-2.173369c-3.20286-1.372654-6.062556-3.546023-8.693476-6.405719v6.977659h-15.213584V328.63628200000005h15.213584v27.224308zM505.960519 327.14923999999996c3.546023 0 6.748883 0.571939 9.722967 1.830206 2.974084 1.258266 5.948168 3.317248 8.922252 6.176944v-6.40572H539.933709v60.854334h-15.213583v-6.748882c-2.745308 2.745308-5.719392 4.80429-8.922252 6.176943-3.20286 1.372654-6.634495 2.058981-10.294907 2.058981-7.892761 0-14.641644-2.974084-20.246648-9.036639-5.490617-5.948168-8.350313-13.726542-8.350313-23.106345 0-9.03664 2.859696-16.586238 8.579088-22.763182 5.83378-5.948168 12.697051-9.03664 20.475425-9.03664z m-9.03664 44.954424c3.088472 3.317248 7.092046 5.033065 11.781948 5.033065 4.80429 0 8.807864-1.60143 12.010724-4.918677s4.689902-7.549598 4.689902-12.811439c0-5.376229-1.60143-9.722967-4.689902-13.154602s-7.092046-5.033065-11.896336-5.033066c-4.689902 0-8.579088 1.715818-11.781948 5.033066-3.20286 3.431635-4.80429 7.663986-4.80429 12.925826 0 5.261841 1.487042 9.494191 4.689902 12.925827zM580.884558 327.14923999999996c11.896336 0 21.047364 4.23235 27.567471 12.697051l-12.010724 8.235925c-3.774799-4.689902-9.151028-6.977659-15.89991-6.977658-5.490617 0-9.951743 1.60143-13.383378 4.918677s-5.147453 7.549598-5.147454 12.697051c0 5.376229 1.715818 9.722967 5.261841 13.040214 3.546023 3.431635 8.121537 5.147453 13.84093 5.147454 3.088472 0 5.83378-0.457551 8.235925-1.487042 2.287757-0.915103 4.689902-2.745308 7.092046-5.147454l12.697051 6.977659c-3.088472 4.461126-6.977659 7.892761-11.781948 10.294906s-10.180518 3.660411-16.243074 3.660411c-6.520107 0-12.468275-1.372654-17.730116-4.23235s-9.379803-6.748883-12.353888-11.66756c-2.974084-4.918677-4.461126-10.409294-4.461126-16.243074 0-8.464701 2.974084-15.899911 9.03664-22.305631 6.176944-6.405719 14.641644-9.608579 25.279714-9.608579zM621.14908 306.559428h15.671135l38.091153 83.045576h-15.556747l-17.501341-38.20554-15.785523 38.20554h-15.556747l23.106345-56.27882zM986.847025-55.47810500000003h-878.49866c-19.903485 0-36.260947-16.357462-36.260947-36.260948s16.357462-36.260947 36.260947-36.260947h878.49866c19.903485 0 36.260947 16.357462 36.260947 36.260947 0 20.017873-16.357462 36.260947-36.260947 36.260948zM144.838088 189.99821299999996h73.208222V-54.56300299999998h-73.208222zM438.014138 163.91778399999998h73.208222v-218.480787h-73.208222zM584.773745 163.91778399999998h218.366398v-72.979446H584.773745zM584.773745 17.84450400000003h218.366398v-72.979446H584.773745zM877.606631 189.99821299999996h73.208222V-54.56300299999998h-73.208222zM380.820215 17.84450400000003c8.693476 0 15.785523 7.092046 15.785523 15.785523v41.637176c0 8.693476-7.092046 15.785523-15.785523 15.785523-8.693476 0-15.785523-7.092046-15.785523-15.785523v-41.637176c0.114388-8.693476 7.206434-15.785523 15.785523-15.785523z"  horiz-adv-x="1024" />

    
    <glyph glyph-name="experiment" unicode="&#59364;" d="M881 90.20000000000005L653.5 450.9V826.5H372.7v-375.6L143.8 97c-41.5-68.1 7.5-155.5 87.3-155.5h566.1c76.3 0 123.3 83.4 83.8 148.7zM414.6 423.7l8 12.4V776.5h180.9v-340l7.7-12.2 111.4-176.7h-422l114 176.1zM839 15.899999999999977c-4.1-7.3-16.5-24.4-41.8-24.4H231.1c-27.6 0-41.1 18.7-45.6 26.7s-13.3 28.9 0.7 52.3l82.1 127h485.9L838.4 64c12.8-21.5 4.7-40.8 0.6-48.1z"  horiz-adv-x="1024" />

    
    <glyph glyph-name="xiazai" unicode="&#58909;" d="M992.171444 583.37034C975.189616 758.844518 827.415189 896 647.529412 896 469.849434 896 323.616239 762.139078 303.679205 589.789782 131.598564 562.160729 0 413.311682 0 233.411765c0-199.596576 161.815189-361.411765 361.411765-361.411765h572.235294v1.555371c185.470975 15.299199 331.294118 170.426291 331.294117 359.856394 0 168.969898-116.101408 310.367302-272.769732 349.958575zM632.470588-67.764706L294.530793 293.647059h244.278155V624.941176h180.705882V293.647059H970.410384z"  horiz-adv-x="1264" />

    
    <glyph glyph-name="tongji" unicode="&#59512;" d="M93.090909-34.909091h930.909091v-93.090909H0V896h93.090909v-930.909091z m93.090909 442.181818h93.090909v-372.363636H186.181818V407.272727z m209.454546 139.636364h93.090909v-512h-93.090909V546.909091z m209.454545-139.636364h93.090909v-372.363636h-93.090909V407.272727z m209.454546 186.181818h93.090909v-558.545454h-93.090909V593.454545z m-555.985455-15.45309l-51.665455 77.451636L442.181818 812.311273l205.381818-136.936728 182.597819 162.327273 61.858909-69.585454-236.311273-210.036364L442.181818 700.416l-183.621818-122.414545z"  horiz-adv-x="1024" />

    
    <glyph glyph-name="shandian1" unicode="&#58906;" d="M295.90528 66.2016c-1.77152 0-3.54304-0.18432-5.2736-0.55296-6.62528-1.42336-12.288-5.55008-15.96416-11.60192-7.3216-12.17536 1.97632-30.2592 15.19616-38.27712A429.3632 429.3632 0 0 1 512-45.95712c114.85184 0 222.84288 44.7488 304.09728 125.99296 81.2544 81.2544 125.99296 189.24544 125.99296 304.09728-0.12288 114.81088-44.86144 222.72-125.99296 303.85152C734.85312 769.21856 626.85184 813.96736 512 813.96736c-114.85184 0-222.84288-44.7488-304.09728-126.0032-81.24416-81.24416-125.99296-189.2352-125.99296-304.08704a428.7488 428.7488 0 0 1 69.55008-234.65984c3.97312-6.10304 9.6256-10.24 15.90272-11.66336 6.38976-1.45408 12.98432-0.12288 19.06688 3.84 14.65344 9.55392 2.27328 31.04768-1.87392 37.39648a373.98528 373.98528 0 0 0-60.85632 205.07648c0 50.56512 10.5984 100.39296 31.49824 148.1216 20.10112 45.8752 48.61952 87.47008 84.79744 123.648 36.16768 36.17792 77.7728 64.70656 123.648 84.79744 47.7184 20.89984 97.54624 31.50848 148.1216 31.50848s100.41344-10.5984 148.16256-31.488c45.89568-20.08064 87.52128-48.60928 123.72992-84.76672 36.20864-36.17792 64.768-77.7728 84.87936-123.63776 20.93056-47.72864 31.5392-97.57696 31.5392-148.1728 0-50.5856-10.5984-100.44416-31.50848-148.1728-20.09088-45.8752-48.61952-87.47008-84.79744-123.63776-36.17792-36.16768-77.78304-64.68608-123.648-84.76672-47.7184-20.8896-97.54624-31.47776-148.1216-31.47776-80.11776 0-160.6144 41.43104-201.472 66.14016a28.2624 28.2624 0 0 1-14.62272 4.23936zM611.9936 646.43072l-229.888-248.48384 114.9952-24.07424-93.3888-223.0784 238.19264 243.18976-107.90912 23.32672 77.99808 229.12z m19.6096 48.5888"  horiz-adv-x="1024" />

    
    <glyph glyph-name="yiliaoqixie" unicode="&#58943;" d="M923.2384 217.2928a163.84 163.84 0 0 1-327.68-12.4928v-112.64a108.8512 108.8512 0 0 0-217.7024 0V269.312a319.5904 319.5904 0 0 1 291.84 317.952v225.28a27.5456 27.5456 0 0 1-27.5456 27.5456H510.6688a27.5456 27.5456 0 1 1 0-55.0912H614.4v-197.7344a264.2944 264.2944 0 1 0-528.4864 0V785.2032h104.6528a27.5456 27.5456 0 0 1 0 55.0912H58.7776a27.5456 27.5456 0 0 1-27.5456-27.5456v-225.28a319.5904 319.5904 0 0 1 291.84-318.1568v-177.664a163.84 163.84 0 0 1 327.68 0v112.64a108.8512 108.8512 0 0 0 216.9856 12.1856 96.5632 96.5632 0 1 1 55.1936 0z m-26.9312-133.8368a40.96 40.96 0 1 0 40.96 40.96 40.96 40.96 0 0 0-40.96-40.96z"  horiz-adv-x="1024" />

    
    <glyph glyph-name="retail" unicode="&#58897;" d="M983.9 582.6c-25.8 60.8-62.6 115.4-109.5 162.2C827.5 791.7 772.9 828.4 712 854.2 649.1 880.7 582.2 894.3 513.2 894.3S377.3 880.8 314.4 854.2C253.5 828.5 198.8 791.7 152 744.8 105.1 698 68.2 643.3 42.5 582.6c-26.6-63-40.1-129.8-40.1-198.8C2.4 315 15.9 248 42.5 185.10000000000002c25.8-60.8 62.6-115.4 109.5-162.2 46.9-46.9 101.6-83.7 162.4-109.3 62.9-26.6 129.9-40.1 198.8-40.1 69 0 135.9 13.5 198.9 40.1 60.9 25.7 115.5 62.5 162.4 109.3 46.9 46.9 83.8 101.5 109.5 162.2 26.7 62.9 40.1 129.8 40.1 198.7 0 68.9-13.6 135.8-40.2 198.8zM513.2-99.89999999999998C246.2-99.89999999999998 29 117 29 383.79999999999995S246.2 867.6 513.2 867.6s484.2-217 484.2-483.8-217.2-483.7-484.2-483.7z m0 0M744.9 134.39999999999998H276.4V285.9h-26.7V121c0-7.3 5.9-13.3 13.3-13.3h495.2c7.4 0 13.3 5.9 13.3 13.3V285.9h-26.7v-151.5zM792 545.5l-83.8 129.9c-2.5 3.8-6.7 6.2-11.2 6.2H323.1c-4.7 0-9-2.5-11.4-6.5l-77.5-129.9c-1.1-1.9-1.9-4.3-1.9-6.8V384c0-1.1 0.1-2.2 0.3-3.2-0.2-2.1-0.3-4.1-0.3-6.4 0-40.5 32.9-73.3 73.4-73.3 19.3 0 40.8 7.5 57.8 20.2 6.3 4.7 11.5 9.7 16 15 3.4-5.1 7.6-9.9 12.5-14.4 14.8-13.3 34.4-21 53.7-21 27.5 0 52.1 14.8 65.4 36.5 15.7-22.2 44.3-36.5 70.8-36.5 19.4 0 39.3 7.5 54.8 20.7 6.4 5.5 11.6 11.5 15.7 18 17.2-18.9 44.6-31 69.3-31 40.5 0 72.2 32 72.2 73V538.2c0.2 2.8-0.6 5.2-1.9 7.3zM330.7 654.9h359l66.6-103.3H269.1l61.6 103.3z m436.8-268.7c-0.1-0.9-0.2-1.8-0.2-2.9 0-0.9 0.1-1.7 0.2-2.2-0.2-25.7-20.2-45.7-45.5-45.7-23.6 0-52.9 17.2-59.1 38.3v0.6c0 4.3-0.6 8.3-1.1 11.6-1.1 6.7-7.2 11.6-14 11.2-6.7-0.5-12-5.7-12.4-12.3-0.1-0.6-0.2-1.7-0.2-3.1 0-3.6 0.3-7.1 1-10.6-2.2-24.7-30-43.6-54-43.6-25.5 0-56.4 20.9-56.4 46.7 0 2.3 0.3 4.9 0.8 7.4 0.6 3.9-0.5 7.8-3 10.7-2.5 3-6.3 4.7-10.2 4.7h-5.7c-3.9 0-7.6-1.7-10.1-4.7s-3.6-7-3-10.7c0.5-2.6 0.8-5.1 0.8-7.4 0-24.9-23.1-46.7-49.5-46.7-26.9 0-51.4 22.2-51.4 46.7 0 2.3 0.3 4.9 0.8 7.4 0.6 3.9-0.5 7.8-3 10.7-2.5 3-6.3 4.7-10.2 4.7h-2.4c-3.9 0-7.6-1.7-10.1-4.7s-3.7-7-3-10.7c0.5-2.6 0.8-5.1 0.8-7.4 0-10.9-7.2-22.5-19.6-31.8-12.3-9.2-28.4-14.9-41.8-14.9-25.8 0-46.7 21-46.7 46.7 0 2.3 0.3 4.9 0.8 7.4 0.3 2.4 0.1 4.9-0.8 7.1V525h508.5v-138.8h-0.3z m0 0"  horiz-adv-x="1024" />

    
    <glyph glyph-name="yonghu1" unicode="&#59141;" d="M295.901 369.91c-40.64 33.009-66.64 83.58-66.64 140.27 0 99.455 80.024 180.08 178.739 180.08s178.738-80.625 178.738-180.08c0-56.69-25.999-107.261-66.64-140.27C627.995 325.396 704 218.549 704 93.816c0-12.032-0.707-23.898-2.082-35.557h-64.336a237.55 237.55 0 0 1 2.664 35.557c0 129.229-103.98 233.99-232.246 233.99-128.266 0-232.246-104.761-232.246-233.99 0-12.088 0.91-23.962 2.664-35.557h-64.336A303.534 303.534 0 0 0 112 93.816c0 124.733 76.006 231.58 183.901 276.094zM408 394.332c63.504 0 114.985 51.866 114.985 115.847 0 63.981-51.48 115.848-114.985 115.848-63.504 0-114.985-51.867-114.985-115.848 0-63.98 51.48-115.847 114.985-115.847zM615.759 709c98.652 0 178.626-80.64 178.626-180.116 0-56.7-25.983-107.281-66.598-140.297 107.827-44.523 183.785-151.392 183.785-276.149 0-12.034-0.706-23.902-2.08-35.564h-64.296a237.79 237.79 0 0 1 2.663 35.564c0 129.255-103.915 234.036-232.1 234.036h0.76c-18.375 0-33.27 14.895-33.27 33.27 0 18.374 14.895 33.27 33.27 33.27h-0.76c63.464 0 114.912 51.877 114.912 115.87 0 63.994-51.448 115.87-114.912 115.87-4.44 0-9.626-0.533-15.557-1.602-15.46-2.785-30.252 7.491-33.037 22.953a28.445 28.445 0 0 0-0.301 2.133c-1.997 19.42 11.83 36.901 31.189 39.43 6.803 0.888 12.705 1.332 17.706 1.332z"  horiz-adv-x="1024" />

    
    <glyph glyph-name="paidui" unicode="&#58978;" d="M948.34482-81.179436l-95.582469-0.114196V75.726553c0 39.397792-6.623397 77.996208-19.755994 114.767481-12.675811 35.515111-31.175644 68.517899-54.81432 98.094792-33.116984 41.339132-75.598082 74.34192-123.218021 96.381844 47.61994 22.039924 90.101037 55.042712 123.218021 96.381845 23.638675 29.576893 42.138508 62.579681 54.81432 98.094792 13.132597 36.771272 19.755994 75.369689 19.755994 114.767481V799.960745h-45.678599v-105.745957c0-67.718523-22.382514-131.44017-64.635218-184.198952-40.996543-51.160031-98.437382-87.702911-161.930635-102.776849-8.222148-1.827144-15.073938-8.222148-17.129475-17.015278-2.854912-12.219025 4.682056-24.552247 17.015278-27.521356 63.493253-15.073938 121.048288-51.502621 162.159028-102.776848 42.252704-52.758782 64.635218-116.480428 64.635218-184.198952v-157.134382l-589.824914-0.799375V75.726553c0 67.375934 22.154121 130.869187 63.950039 183.399576 40.653953 51.045835 97.752203 87.702911 160.674474 103.119438 10.506078 2.512323 17.472064 11.990632 17.357867 22.268317v0.456786 0.456786c0 10.277685-6.965986 19.755994-17.357867 22.268317-63.036467 15.416527-120.134716 51.959407-160.674474 103.119438-41.910115 52.644586-63.950039 116.023642-63.950039 183.399577V849.293632l731.999554 0.913572c12.561615 0 22.8393 10.277685 22.8393 22.8393s-10.277685 22.8393-22.8393 22.8393L202.070704 894.972232c-2.055537 0.685179-4.339467 1.027768-6.623397 1.027768-2.398126 0-4.682056-0.342589-6.85179-1.027768l-111.912568-0.228393c-12.561615 0-22.8393-10.277685-22.8393-22.8393s10.277685-22.8393 22.8393-22.8393l94.783093 0.114197v-154.964648c0-39.169399 6.623397-77.539422 19.641798-114.196499 12.561615-35.400914 30.833055-68.289506 54.243337-97.752202 33.231181-41.795918 75.940671-75.141296 123.9032-97.295417-47.962529-22.268317-90.67202-55.613695-123.9032-97.295416C221.940894 258.098361 203.669455 225.323966 191.10784 189.923051c-13.018401-36.542879-19.641798-75.027099-19.641798-114.196498v-157.933757l-95.810862-0.114197c-12.561615 0-22.8393-10.277685-22.8393-22.839299s10.277685-22.8393 22.8393-22.8393l752.326531 1.027768H829.466265l118.878555 0.114197c12.561615 0 22.8393 10.277685 22.8393 22.8393s-10.277685 22.8393-22.8393 22.839299z"  horiz-adv-x="1024" />

    
    <glyph glyph-name="baogao" unicode="&#59240;" d="M821.257459-62.708971H202.742541c-37.902238 0-68.724221 30.821983-68.724221 68.724221V693.261553c0 37.894052 30.821983 68.724221 68.724221 68.724221h120.26713c18.97619 0 34.361599-15.385409 34.361599-34.361599s-15.385409-34.361599-34.361599-34.361599H202.742541v-687.247326h618.514918V693.261553H709.580984c-18.97619 0-34.361599 15.385409-34.361599 34.361599s15.385409 34.361599 34.361599 34.361598h111.676475c37.902238 0 68.724221-30.830169 68.724221-68.724221v-687.247326c-0.001023-37.901215-30.821983-68.722174-68.724221-68.722174zM632.266108 624.538355H391.732869c-56.844659 0-103.08582 46.24116-103.08582 103.08582S334.88821 830.709995 391.732869 830.709995h240.533239c56.844659 0 103.08582-46.24116 103.085819-103.08582s-46.240137-103.08582-103.085819-103.08582zM391.732869 761.985774c-18.942421 0-34.361599-15.410991-34.361599-34.361599s15.419178-34.361599 34.361599-34.361599h240.533239c18.942421 0 34.361599 15.410991 34.361598 34.361599s-15.419178 34.361599-34.361598 34.361599H391.732869zM448.994014 190.553173l-142.432966 159.298076 64.042595 57.264215 105.703437-118.219495L675.78425 492.937085l61.424978-60.049655L499.178997 189.434699c-13.901615-14.217816-36.931121-13.704117-50.184983 1.118474z"  horiz-adv-x="1024" />

    
    <glyph glyph-name="yiliao" unicode="&#59118;" d="M893 526c5.4 0 10-4.6 10-10v-488.2c0-5.4-4.6-10-10-10H128.1c-5.4 0-10 4.6-10 10V516c0 5.4 4.6 10 10 10H893m0 50H128.1c-33 0-60-27-60-60v-488.2c0-33 27-60 60-60H893c33 0 60 27 60 60V516c0 33-27 60-60 60zM513 425c-85.1 0-154-68.9-154-154s68.9-154 154-154 154 68.9 154 154-68.9 154-154 154z m23-178.5v-63h-50.8v63h-63v50.8h63v63H536v-63h63v-50.8h-63zM768 573.4h-50V747.6H306v-174.3h-50V754.5c0 23.8 19.3 43.1 43.1 43.1h425.8c23.8 0 43.1-19.3 43.1-43.1v-181.1z"  horiz-adv-x="1024" />

    
    <glyph glyph-name="houqinwuzi" unicode="&#59134;" d="M859.3 528.7c4.9 0 9.1-4.3 9.1-9.5v-462.1c0-5.1-4.2-9.5-9.1-9.5H161.8c-4.9 0-9.1 4.3-9.1 9.5V519.2c0 5.1 4.2 9.5 9.1 9.5h697.5m20 47.3H151.8c-30.1 0-44.7-16.1-44.7-47.3v-471.5c0-31.2 24.6-56.8 54.7-56.8h697.5c30.1 0 54.7 25.6 54.7 56.8V528.7c0 31.2-14.6 47.3-44.7 47.3h10zM333.4 352.6v-63h-50.8v63h-63v50.8h63v63h50.8v-63h63v-50.8h-63zM866.6 529.2L771 723.5H250.8l-95.6-194.3-45.8 17.9 97 197.1c3.4 13.8 18 23.8 36 23.8h536.9c18 0 32.6-10.1 36-23.8l97-197.1-45.7-17.9zM535.9 550.4H138.6l91.5 209.7h305.8zM535.9 293.9h263.2v-50H535.9zM419.5 176.1h384.6v-50H419.5z"  horiz-adv-x="1024" />

    
    <glyph glyph-name="shoushu" unicode="&#59140;" d="M179.5 3.8c-37.9 0-70 10.3-94 30.8l-0.7 0.6-22.1 21.7 455.7 535.2L699.6 437 432.9 123.7c-36.1-42.3-98.5-82-162.8-103.6-32.7-10.9-63.2-16.3-90.6-16.3z m-46.2 58.9c69.1-32.5 206.7 29 261.5 93.4l234.4 275.3L524 521.5 133.3 62.7zM692.8 468.2L551 590.1l143.7 167.2c7.2 8.4 19.8 9.3 28.2 2.1l111.5-95.8c8.4-7.2 9.3-19.8 2.1-28.2L692.8 468.2zM550.9 4.4h-95.6c-17.8 0-32.3 14.5-32.3 32.3 0 17.8 14.5 32.3 32.3 32.3h95.6c17.8 0 32.3-14.5 32.3-32.3 0-17.8-14.5-32.3-32.3-32.3zM739.3 4.4h-95.6c-17.8 0-32.3 14.5-32.3 32.3 0 17.8 14.5 32.3 32.3 32.3h95.6c17.8 0 32.3-14.5 32.3-32.3 0.1-17.8-14.4-32.3-32.3-32.3zM928.1 4.4h-95.6c-17.8 0-32.3 14.5-32.3 32.3 0 17.8 14.5 32.3 32.3 32.3h95.6c17.8 0 32.3-14.5 32.3-32.3 0-17.8-14.5-32.3-32.3-32.3z"  horiz-adv-x="1024" />

    


  </font>
</defs>
</svg>
